<mxfile host="app.diagrams.net" modified="2024-02-14T09:12:48.854Z" agent="Mozilla/5.0 (Windows NT 10.0; Win64; x64) AppleWebKit/537.36 (KHTML, like Gecko) Chrome/121.0.0.0 Safari/537.36" etag="qCwrEwhNf_YJB5JlpEP3" version="23.1.4" type="device" pages="4">
  <diagram name="Страница — 1" id="8gSsBskgYCqmv3yqJh8i">
    <mxGraphModel dx="880" dy="468" grid="1" gridSize="10" guides="1" tooltips="1" connect="1" arrows="1" fold="1" page="1" pageScale="1" pageWidth="827" pageHeight="1169" math="0" shadow="0">
      <root>
        <mxCell id="0" />
        <mxCell id="1" parent="0" />
        <mxCell id="FN5sF9n2hCXIpSzczThB-11" style="edgeStyle=orthogonalEdgeStyle;rounded=0;orthogonalLoop=1;jettySize=auto;html=1;exitX=0.5;exitY=1;exitDx=0;exitDy=0;exitPerimeter=0;entryX=0.5;entryY=0;entryDx=0;entryDy=0;" parent="1" source="FN5sF9n2hCXIpSzczThB-1" target="FN5sF9n2hCXIpSzczThB-8" edge="1">
          <mxGeometry relative="1" as="geometry" />
        </mxCell>
        <mxCell id="FN5sF9n2hCXIpSzczThB-1" value="Начало" style="strokeWidth=1;html=1;shape=mxgraph.flowchart.terminator;whiteSpace=wrap;" parent="1" vertex="1">
          <mxGeometry x="203.5" y="70" width="183" height="60" as="geometry" />
        </mxCell>
        <mxCell id="FN5sF9n2hCXIpSzczThB-16" style="edgeStyle=orthogonalEdgeStyle;rounded=0;orthogonalLoop=1;jettySize=auto;html=1;exitX=0.5;exitY=1;exitDx=0;exitDy=0;" parent="1" source="FN5sF9n2hCXIpSzczThB-6" target="FN5sF9n2hCXIpSzczThB-15" edge="1">
          <mxGeometry relative="1" as="geometry" />
        </mxCell>
        <mxCell id="FN5sF9n2hCXIpSzczThB-6" value="pid процесса = &lt;br&gt;pid процесса из списка" style="rhombus;whiteSpace=wrap;html=1;" parent="1" vertex="1">
          <mxGeometry x="203.75" y="260" width="183" height="80" as="geometry" />
        </mxCell>
        <mxCell id="FN5sF9n2hCXIpSzczThB-24" style="edgeStyle=orthogonalEdgeStyle;rounded=0;orthogonalLoop=1;jettySize=auto;html=1;exitX=1;exitY=0.5;exitDx=0;exitDy=0;entryX=0.5;entryY=0;entryDx=0;entryDy=0;" parent="1" source="FN5sF9n2hCXIpSzczThB-8" target="FN5sF9n2hCXIpSzczThB-25" edge="1">
          <mxGeometry relative="1" as="geometry">
            <mxPoint x="530" y="190" as="targetPoint" />
          </mxGeometry>
        </mxCell>
        <mxCell id="FN5sF9n2hCXIpSzczThB-8" value="Достигнут конец списка" style="rhombus;whiteSpace=wrap;html=1;" parent="1" vertex="1">
          <mxGeometry x="203.75" y="150" width="183" height="80" as="geometry" />
        </mxCell>
        <mxCell id="FN5sF9n2hCXIpSzczThB-9" value="" style="endArrow=classic;html=1;rounded=0;exitX=0.5;exitY=1;exitDx=0;exitDy=0;entryX=0.5;entryY=0;entryDx=0;entryDy=0;" parent="1" source="FN5sF9n2hCXIpSzczThB-8" target="FN5sF9n2hCXIpSzczThB-6" edge="1">
          <mxGeometry width="50" height="50" relative="1" as="geometry">
            <mxPoint x="390" y="270" as="sourcePoint" />
            <mxPoint x="440" y="220" as="targetPoint" />
          </mxGeometry>
        </mxCell>
        <mxCell id="FN5sF9n2hCXIpSzczThB-12" value="" style="endArrow=classic;html=1;rounded=0;exitX=1;exitY=0.5;exitDx=0;exitDy=0;entryX=0.5;entryY=0;entryDx=0;entryDy=0;edgeStyle=orthogonalEdgeStyle;" parent="1" source="FN5sF9n2hCXIpSzczThB-6" target="FN5sF9n2hCXIpSzczThB-20" edge="1">
          <mxGeometry width="50" height="50" relative="1" as="geometry">
            <mxPoint x="390" y="440" as="sourcePoint" />
            <mxPoint x="480" y="460" as="targetPoint" />
            <Array as="points">
              <mxPoint x="410" y="300" />
              <mxPoint x="410" y="450" />
              <mxPoint x="295" y="450" />
            </Array>
          </mxGeometry>
        </mxCell>
        <mxCell id="FN5sF9n2hCXIpSzczThB-15" value="Переход к следующему элементу списка" style="rounded=0;whiteSpace=wrap;html=1;" parent="1" vertex="1">
          <mxGeometry x="203.5" y="360" width="183" height="60" as="geometry" />
        </mxCell>
        <mxCell id="FN5sF9n2hCXIpSzczThB-17" value="" style="endArrow=classic;html=1;rounded=0;edgeStyle=orthogonalEdgeStyle;elbow=vertical;exitX=0.5;exitY=1;exitDx=0;exitDy=0;" parent="1" source="FN5sF9n2hCXIpSzczThB-15" edge="1">
          <mxGeometry width="50" height="50" relative="1" as="geometry">
            <mxPoint x="110" y="470" as="sourcePoint" />
            <mxPoint x="290" y="140" as="targetPoint" />
            <Array as="points">
              <mxPoint x="295" y="440" />
              <mxPoint x="180" y="440" />
              <mxPoint x="180" y="140" />
            </Array>
          </mxGeometry>
        </mxCell>
        <mxCell id="FN5sF9n2hCXIpSzczThB-32" style="edgeStyle=orthogonalEdgeStyle;rounded=0;orthogonalLoop=1;jettySize=auto;html=1;exitX=0.5;exitY=1;exitDx=0;exitDy=0;" parent="1" source="FN5sF9n2hCXIpSzczThB-20" target="FN5sF9n2hCXIpSzczThB-21" edge="1">
          <mxGeometry relative="1" as="geometry" />
        </mxCell>
        <mxCell id="FN5sF9n2hCXIpSzczThB-20" value="Обновление объема виртуальной памяти" style="rounded=0;whiteSpace=wrap;html=1;" parent="1" vertex="1">
          <mxGeometry x="204" y="482" width="183" height="60" as="geometry" />
        </mxCell>
        <mxCell id="FN5sF9n2hCXIpSzczThB-33" style="edgeStyle=orthogonalEdgeStyle;rounded=0;orthogonalLoop=1;jettySize=auto;html=1;exitX=0.5;exitY=1;exitDx=0;exitDy=0;entryX=0.5;entryY=0;entryDx=0;entryDy=0;" parent="1" source="FN5sF9n2hCXIpSzczThB-21" target="FN5sF9n2hCXIpSzczThB-22" edge="1">
          <mxGeometry relative="1" as="geometry" />
        </mxCell>
        <mxCell id="FN5sF9n2hCXIpSzczThB-21" value="Обновление объема физической памяти" style="rounded=0;whiteSpace=wrap;html=1;" parent="1" vertex="1">
          <mxGeometry x="203.75" y="562" width="183" height="60" as="geometry" />
        </mxCell>
        <mxCell id="FN5sF9n2hCXIpSzczThB-34" style="edgeStyle=orthogonalEdgeStyle;rounded=0;orthogonalLoop=1;jettySize=auto;html=1;exitX=0.5;exitY=1;exitDx=0;exitDy=0;" parent="1" source="FN5sF9n2hCXIpSzczThB-22" target="FN5sF9n2hCXIpSzczThB-31" edge="1">
          <mxGeometry relative="1" as="geometry" />
        </mxCell>
        <mxCell id="FN5sF9n2hCXIpSzczThB-22" value="Инкремент счетчика прерываний" style="rounded=0;whiteSpace=wrap;html=1;" parent="1" vertex="1">
          <mxGeometry x="204" y="642" width="183" height="60" as="geometry" />
        </mxCell>
        <mxCell id="FN5sF9n2hCXIpSzczThB-23" value="Да" style="text;html=1;align=center;verticalAlign=middle;whiteSpace=wrap;rounded=0;" parent="1" vertex="1">
          <mxGeometry x="370" y="280" width="60" height="30" as="geometry" />
        </mxCell>
        <mxCell id="FN5sF9n2hCXIpSzczThB-35" style="edgeStyle=orthogonalEdgeStyle;rounded=0;orthogonalLoop=1;jettySize=auto;html=1;exitX=0.5;exitY=1;exitDx=0;exitDy=0;entryX=0.5;entryY=0;entryDx=0;entryDy=0;" parent="1" source="FN5sF9n2hCXIpSzczThB-25" target="FN5sF9n2hCXIpSzczThB-26" edge="1">
          <mxGeometry relative="1" as="geometry" />
        </mxCell>
        <mxCell id="FN5sF9n2hCXIpSzczThB-25" value="Создание нового элемента списка" style="rounded=0;whiteSpace=wrap;html=1;" parent="1" vertex="1">
          <mxGeometry x="430" y="220" width="183" height="60" as="geometry" />
        </mxCell>
        <mxCell id="FN5sF9n2hCXIpSzczThB-36" style="edgeStyle=orthogonalEdgeStyle;rounded=0;orthogonalLoop=1;jettySize=auto;html=1;exitX=0.5;exitY=1;exitDx=0;exitDy=0;entryX=0.5;entryY=0;entryDx=0;entryDy=0;" parent="1" source="FN5sF9n2hCXIpSzczThB-26" target="FN5sF9n2hCXIpSzczThB-29" edge="1">
          <mxGeometry relative="1" as="geometry" />
        </mxCell>
        <mxCell id="FN5sF9n2hCXIpSzczThB-26" value="Установка соответствующего идентификатора и имени процесса&amp;nbsp;" style="rounded=0;whiteSpace=wrap;html=1;" parent="1" vertex="1">
          <mxGeometry x="430" y="300" width="183" height="60" as="geometry" />
        </mxCell>
        <mxCell id="FN5sF9n2hCXIpSzczThB-27" value="Да" style="text;html=1;align=center;verticalAlign=middle;whiteSpace=wrap;rounded=0;" parent="1" vertex="1">
          <mxGeometry x="418" y="168" width="60" height="30" as="geometry" />
        </mxCell>
        <mxCell id="FN5sF9n2hCXIpSzczThB-30" style="edgeStyle=orthogonalEdgeStyle;rounded=0;orthogonalLoop=1;jettySize=auto;html=1;exitX=0.5;exitY=1;exitDx=0;exitDy=0;" parent="1" source="FN5sF9n2hCXIpSzczThB-29" target="FN5sF9n2hCXIpSzczThB-20" edge="1">
          <mxGeometry relative="1" as="geometry" />
        </mxCell>
        <mxCell id="FN5sF9n2hCXIpSzczThB-29" value="Установка нулевого значения количеству страничных прерываний" style="rounded=0;whiteSpace=wrap;html=1;" parent="1" vertex="1">
          <mxGeometry x="430" y="380" width="183" height="60" as="geometry" />
        </mxCell>
        <mxCell id="FN5sF9n2hCXIpSzczThB-31" value="Конец" style="strokeWidth=1;html=1;shape=mxgraph.flowchart.terminator;whiteSpace=wrap;" parent="1" vertex="1">
          <mxGeometry x="203.5" y="722" width="183" height="60" as="geometry" />
        </mxCell>
      </root>
    </mxGraphModel>
  </diagram>
  <diagram id="msku9psWZ6GVIqZwLK3_" name="Страница — 2">
    <mxGraphModel dx="880" dy="468" grid="1" gridSize="10" guides="1" tooltips="1" connect="1" arrows="1" fold="1" page="1" pageScale="1" pageWidth="827" pageHeight="1169" math="0" shadow="0">
      <root>
        <mxCell id="0" />
        <mxCell id="1" parent="0" />
        <mxCell id="mTRlV8fZgw5BLUt4FxDM-5" style="edgeStyle=orthogonalEdgeStyle;rounded=0;orthogonalLoop=1;jettySize=auto;html=1;exitX=1;exitY=0.25;exitDx=0;exitDy=0;entryX=0;entryY=0.25;entryDx=0;entryDy=0;" parent="1" source="mTRlV8fZgw5BLUt4FxDM-1" target="mTRlV8fZgw5BLUt4FxDM-3" edge="1">
          <mxGeometry relative="1" as="geometry" />
        </mxCell>
        <mxCell id="mTRlV8fZgw5BLUt4FxDM-1" value="&lt;p style=&quot;line-height: 0%;&quot;&gt;Пространство пользователя&lt;/p&gt;" style="rounded=0;whiteSpace=wrap;html=1;" parent="1" vertex="1">
          <mxGeometry x="10" y="110" width="180" height="90" as="geometry" />
        </mxCell>
        <mxCell id="mTRlV8fZgw5BLUt4FxDM-14" style="edgeStyle=orthogonalEdgeStyle;rounded=0;orthogonalLoop=1;jettySize=auto;html=1;exitX=0;exitY=0.75;exitDx=0;exitDy=0;entryX=1;entryY=0.75;entryDx=0;entryDy=0;" parent="1" source="mTRlV8fZgw5BLUt4FxDM-3" target="mTRlV8fZgw5BLUt4FxDM-1" edge="1">
          <mxGeometry relative="1" as="geometry" />
        </mxCell>
        <mxCell id="mTRlV8fZgw5BLUt4FxDM-3" value="char *output_buffer" style="rounded=0;whiteSpace=wrap;html=1;" parent="1" vertex="1">
          <mxGeometry x="360" y="110" width="330" height="90" as="geometry" />
        </mxCell>
        <mxCell id="mTRlV8fZgw5BLUt4FxDM-4" value="Пространство ядра" style="text;html=1;align=center;verticalAlign=middle;whiteSpace=wrap;rounded=0;" parent="1" vertex="1">
          <mxGeometry x="445" y="110" width="160" height="30" as="geometry" />
        </mxCell>
        <mxCell id="mTRlV8fZgw5BLUt4FxDM-6" value="cat /proc/my_page_fault" style="text;html=1;align=center;verticalAlign=middle;whiteSpace=wrap;rounded=0;" parent="1" vertex="1">
          <mxGeometry x="190" y="100" width="170" height="30" as="geometry" />
        </mxCell>
        <mxCell id="mTRlV8fZgw5BLUt4FxDM-8" value="copy_to_user(buffer, output_buffer + *offset, count)" style="text;html=1;align=center;verticalAlign=middle;whiteSpace=wrap;rounded=0;" parent="1" vertex="1">
          <mxGeometry x="190" y="190" width="170" height="30" as="geometry" />
        </mxCell>
        <mxCell id="mTRlV8fZgw5BLUt4FxDM-10" value="reader()" style="rounded=0;whiteSpace=wrap;html=1;" parent="1" vertex="1">
          <mxGeometry x="370" y="150" width="100" height="30" as="geometry" />
        </mxCell>
        <mxCell id="mTRlV8fZgw5BLUt4FxDM-13" value="" style="edgeStyle=orthogonalEdgeStyle;rounded=0;orthogonalLoop=1;jettySize=auto;html=1;" parent="1" source="mTRlV8fZgw5BLUt4FxDM-11" target="mTRlV8fZgw5BLUt4FxDM-10" edge="1">
          <mxGeometry relative="1" as="geometry" />
        </mxCell>
        <mxCell id="mTRlV8fZgw5BLUt4FxDM-11" value="create_buffer()" style="rounded=0;whiteSpace=wrap;html=1;" parent="1" vertex="1">
          <mxGeometry x="580" y="150" width="100" height="30" as="geometry" />
        </mxCell>
        <mxCell id="mTRlV8fZgw5BLUt4FxDM-12" value="" style="endArrow=classic;startArrow=classic;html=1;rounded=0;entryX=0;entryY=0.5;entryDx=0;entryDy=0;exitX=1;exitY=0.5;exitDx=0;exitDy=0;" parent="1" source="mTRlV8fZgw5BLUt4FxDM-10" target="mTRlV8fZgw5BLUt4FxDM-11" edge="1">
          <mxGeometry width="50" height="50" relative="1" as="geometry">
            <mxPoint x="390" y="270" as="sourcePoint" />
            <mxPoint x="440" y="220" as="targetPoint" />
          </mxGeometry>
        </mxCell>
        <mxCell id="l79wfTf76gtKPBuZ0pS0-1" value="" style="endArrow=none;html=1;rounded=0;fillColor=#f5f5f5;strokeColor=#ababab;" edge="1" parent="1">
          <mxGeometry width="50" height="50" relative="1" as="geometry">
            <mxPoint x="270" y="241" as="sourcePoint" />
            <mxPoint x="270" y="81" as="targetPoint" />
          </mxGeometry>
        </mxCell>
      </root>
    </mxGraphModel>
  </diagram>
  <diagram id="zr-N43XsvUIEM3O1FHie" name="Страница — 3">
    <mxGraphModel dx="880" dy="468" grid="1" gridSize="10" guides="1" tooltips="1" connect="1" arrows="1" fold="1" page="1" pageScale="1" pageWidth="827" pageHeight="1169" math="0" shadow="0">
      <root>
        <mxCell id="0" />
        <mxCell id="1" parent="0" />
        <mxCell id="2JBBUG47Vj0SRZKVkvNy-1" value="Отслеживание страничных прерываний" style="rounded=0;whiteSpace=wrap;html=1;" vertex="1" parent="1">
          <mxGeometry x="240" y="170" width="180" height="110" as="geometry" />
        </mxCell>
        <mxCell id="2JBBUG47Vj0SRZKVkvNy-2" value="" style="endArrow=classic;html=1;rounded=0;entryX=0;entryY=0.25;entryDx=0;entryDy=0;" edge="1" parent="1" target="2JBBUG47Vj0SRZKVkvNy-1">
          <mxGeometry width="50" height="50" relative="1" as="geometry">
            <mxPoint x="80" y="198" as="sourcePoint" />
            <mxPoint x="250" y="220" as="targetPoint" />
          </mxGeometry>
        </mxCell>
        <mxCell id="2JBBUG47Vj0SRZKVkvNy-4" value="Процесс, на котором возникло страничное прерывание" style="text;html=1;align=center;verticalAlign=middle;whiteSpace=wrap;rounded=0;" vertex="1" parent="1">
          <mxGeometry x="80" y="160" width="150" height="30" as="geometry" />
        </mxCell>
        <mxCell id="2JBBUG47Vj0SRZKVkvNy-5" value="" style="endArrow=classic;html=1;rounded=0;entryX=0.5;entryY=1;entryDx=0;entryDy=0;" edge="1" parent="1" target="2JBBUG47Vj0SRZKVkvNy-1">
          <mxGeometry width="50" height="50" relative="1" as="geometry">
            <mxPoint x="330" y="340" as="sourcePoint" />
            <mxPoint x="440" y="220" as="targetPoint" />
          </mxGeometry>
        </mxCell>
        <mxCell id="2JBBUG47Vj0SRZKVkvNy-6" value="ОС Linux" style="text;html=1;align=center;verticalAlign=middle;whiteSpace=wrap;rounded=0;" vertex="1" parent="1">
          <mxGeometry x="330" y="300" width="60" height="30" as="geometry" />
        </mxCell>
        <mxCell id="2JBBUG47Vj0SRZKVkvNy-7" value="" style="endArrow=classic;html=1;rounded=0;exitX=1;exitY=0.5;exitDx=0;exitDy=0;" edge="1" parent="1" source="2JBBUG47Vj0SRZKVkvNy-1">
          <mxGeometry width="50" height="50" relative="1" as="geometry">
            <mxPoint x="390" y="270" as="sourcePoint" />
            <mxPoint x="570" y="225" as="targetPoint" />
          </mxGeometry>
        </mxCell>
        <mxCell id="2JBBUG47Vj0SRZKVkvNy-8" value="" style="endArrow=classic;html=1;rounded=0;entryX=0;entryY=0.75;entryDx=0;entryDy=0;" edge="1" parent="1" target="2JBBUG47Vj0SRZKVkvNy-1">
          <mxGeometry width="50" height="50" relative="1" as="geometry">
            <mxPoint x="80" y="253" as="sourcePoint" />
            <mxPoint x="440" y="220" as="targetPoint" />
          </mxGeometry>
        </mxCell>
        <mxCell id="2JBBUG47Vj0SRZKVkvNy-9" value="Список обработанных процессов" style="text;html=1;align=center;verticalAlign=middle;whiteSpace=wrap;rounded=0;" vertex="1" parent="1">
          <mxGeometry x="80" y="260" width="150" height="30" as="geometry" />
        </mxCell>
        <mxCell id="2JBBUG47Vj0SRZKVkvNy-10" value="Обновленный список обработанных процессов" style="text;html=1;align=center;verticalAlign=middle;whiteSpace=wrap;rounded=0;" vertex="1" parent="1">
          <mxGeometry x="420" y="192" width="150" height="30" as="geometry" />
        </mxCell>
        <mxCell id="2JBBUG47Vj0SRZKVkvNy-11" value="" style="endArrow=classic;html=1;rounded=0;entryX=0.5;entryY=0;entryDx=0;entryDy=0;" edge="1" parent="1" target="2JBBUG47Vj0SRZKVkvNy-1">
          <mxGeometry width="50" height="50" relative="1" as="geometry">
            <mxPoint x="330" y="100" as="sourcePoint" />
            <mxPoint x="440" y="220" as="targetPoint" />
          </mxGeometry>
        </mxCell>
        <mxCell id="2JBBUG47Vj0SRZKVkvNy-12" value="Структуры, содержащие необходимую информацию" style="text;html=1;align=center;verticalAlign=middle;whiteSpace=wrap;rounded=0;" vertex="1" parent="1">
          <mxGeometry x="330" y="117" width="100" height="40" as="geometry" />
        </mxCell>
      </root>
    </mxGraphModel>
  </diagram>
  <diagram id="QpXqcN8UABFPj_cwQkQU" name="Страница — 4">
    <mxGraphModel dx="880" dy="468" grid="1" gridSize="10" guides="1" tooltips="1" connect="1" arrows="1" fold="1" page="1" pageScale="1" pageWidth="827" pageHeight="1169" math="0" shadow="0">
      <root>
        <mxCell id="0" />
        <mxCell id="1" parent="0" />
        <mxCell id="0E0Mm-R9BsLWEYTR4dHR-2" value="main.c" style="rounded=0;whiteSpace=wrap;html=1;" vertex="1" parent="1">
          <mxGeometry x="160" y="180" width="120" height="60" as="geometry" />
        </mxCell>
        <mxCell id="0E0Mm-R9BsLWEYTR4dHR-3" value="handler.c" style="rounded=0;whiteSpace=wrap;html=1;" vertex="1" parent="1">
          <mxGeometry x="280" y="80" width="120" height="60" as="geometry" />
        </mxCell>
        <mxCell id="0E0Mm-R9BsLWEYTR4dHR-4" value="reader.c" style="rounded=0;whiteSpace=wrap;html=1;" vertex="1" parent="1">
          <mxGeometry x="40" y="80" width="120" height="60" as="geometry" />
        </mxCell>
        <mxCell id="0E0Mm-R9BsLWEYTR4dHR-6" value="" style="endArrow=classic;startArrow=classic;html=1;rounded=0;entryX=0.75;entryY=0;entryDx=0;entryDy=0;exitX=0.5;exitY=1;exitDx=0;exitDy=0;" edge="1" parent="1" source="0E0Mm-R9BsLWEYTR4dHR-3" target="0E0Mm-R9BsLWEYTR4dHR-2">
          <mxGeometry width="50" height="50" relative="1" as="geometry">
            <mxPoint x="390" y="100" as="sourcePoint" />
            <mxPoint x="440" y="50" as="targetPoint" />
          </mxGeometry>
        </mxCell>
        <mxCell id="0E0Mm-R9BsLWEYTR4dHR-7" value="" style="endArrow=classic;startArrow=classic;html=1;rounded=0;entryX=0.45;entryY=1.017;entryDx=0;entryDy=0;entryPerimeter=0;exitX=0.25;exitY=0;exitDx=0;exitDy=0;" edge="1" parent="1" source="0E0Mm-R9BsLWEYTR4dHR-2" target="0E0Mm-R9BsLWEYTR4dHR-4">
          <mxGeometry width="50" height="50" relative="1" as="geometry">
            <mxPoint x="210" y="180" as="sourcePoint" />
            <mxPoint x="440" y="50" as="targetPoint" />
          </mxGeometry>
        </mxCell>
      </root>
    </mxGraphModel>
  </diagram>
</mxfile>
